<?xml version="1.0" encoding="UTF-8" standalone="no"?><!DOCTYPE svg PUBLIC "-//W3C//DTD SVG 1.1//EN" "http://www.w3.org/Graphics/SVG/1.1/DTD/svg11.dtd"><svg width="100%" height="100%" viewBox="0 0 191 75" version="1.1" xmlns="http://www.w3.org/2000/svg" xmlns:xlink="http://www.w3.org/1999/xlink" xml:space="preserve" xmlns:serif="http://www.serif.com/" style="fill-rule:evenodd;clip-rule:evenodd;stroke-linejoin:round;stroke-miterlimit:2;"><rect id="Plan-de-travail1" serif:id="Plan de travail1" x="0" y="0" width="190.278" height="74.639" style="fill:none;"/><g><g><path d="M62.67,18.567c0,0.086 -0.009,0.172 -0.026,0.26l-2.661,13.346l-0.141,0.712l-0.012,0.06l-0.498,0.917l-1.253,2.308l-0.059,0.107l-2.787,0.66l-1.251,-1.419l-0.674,-0.763l-0.51,-3.571l-0.162,-1.136l-0.247,-1.728l-0.032,-0.245l0,-0.002l-1.498,-11.075c-0.093,-0.805 0.481,-1.535 1.284,-1.634c0.06,-0.006 0.121,-0.01 0.179,-0.01c0.696,0 1.31,0.491 1.446,1.189l2.318,11.363c0.081,0.41 0.654,0.448 0.788,0.052l3.138,-9.828c0.23,-0.675 0.94,-1.061 1.631,-0.884c0.613,0.157 1.027,0.709 1.027,1.321Z" style="fill:#fab29a;fill-rule:nonzero;"/><path d="M60.274,33.993l-4.335,10.106l-1.525,3.553l-3.446,0l0,-6.808c0,0 -0.931,-0.557 -2.629,-2.556c-1.439,-1.696 -1.587,-4.746 -1.532,-6.537c0.024,-0.853 0.097,-1.42 0.097,-1.42l1.048,-0.345l0.966,0.012l3.718,0.05l0.37,0.005l5.76,0.078l0.481,1.23l0.595,1.524l0.146,0.377l0.286,0.731Z" style="fill:#fab29a;fill-rule:nonzero;"/><path d="M54.871,42.323c-0.8,0 -1.432,-0.252 -1.723,-0.905c-1.265,-2.844 0.087,-4.681 0.087,-4.681c-0.542,0.055 -1.041,0.08 -1.502,0.08c-2.704,0 -4.054,-0.856 -4.656,-1.433c-0.219,-1.059 -0.28,-2.151 -0.279,-3.048c0,-0.206 0.003,-0.402 0.009,-0.585c0.001,-0.046 0.003,-0.091 0.004,-0.134c0.028,-0.738 0.087,-1.233 0.093,-1.282c0.43,4.448 0.431,5.309 1.809,5.309c0.345,0 0.602,-0.055 0.791,-0.139c0.064,-0.028 0.121,-0.059 0.171,-0.093c0.376,-0.246 0.388,-0.608 0.388,-0.653l0,-0.004c0.257,0.703 0.745,1.028 1.481,1.028c0.166,0 0.345,-0.016 0.537,-0.049c1.089,-0.183 1.129,-1.527 1.13,-1.656l0,-0.009l-0.406,-2.844l-0.169,-1.177l0.336,0.005l0,0l0.006,0.028c0.103,0.403 0.192,0.789 0.253,1.063l0.006,0.028l0,0c0.019,0.086 0.035,0.16 0.048,0.218c0.044,-0.014 0.091,-0.022 0.139,-0.022c0.015,0 0.03,0.001 0.046,0.002c0.873,0.095 1.63,0.14 2.285,0.157c0.057,0.002 0.114,0.003 0.169,0.003c0.162,0.004 0.318,0.005 0.468,0.005c1.229,0 2.046,-0.096 2.605,-0.113c0.015,-0.001 0.03,-0.001 0.045,-0.001c0.052,0 0.1,0.003 0.146,0.01c0.032,0.003 0.062,0.008 0.092,0.013l0.448,1.149c-0.095,0.159 -0.224,0.362 -0.382,0.589l0.592,-0.049l0.05,0.129l0.286,0.731l-3.423,7.978c-0.706,0.215 -1.389,0.352 -1.98,0.352Z" style="fill:#e18971;fill-rule:nonzero;"/><path d="M52.992,38.92l0,8.732l5.229,0l0,-7.067l3.248,-4.807c0.209,-0.309 0.221,-0.711 0.031,-1.033l-1.478,-2.503c-0.211,-0.357 -0.624,-0.541 -1.03,-0.46c-0.942,0.189 -2.809,0.442 -5.143,0.133c-0.253,-0.033 -0.485,0.145 -0.521,0.398c-0.127,0.92 -0.067,2.924 2.796,3.188c0,0 -2.787,0.689 -3.132,3.419Z" style="fill:#fab29a;fill-rule:nonzero;"/><path d="M50.063,34.755c0,0 0.013,0.395 -0.388,0.657c-0.05,0.034 -0.107,0.065 -0.171,0.093c-0.189,0.084 -0.446,0.139 -0.791,0.139c-1.379,0 -1.379,-0.862 -1.809,-5.313c0,0 0.294,-1.544 1.992,-1.258c0.055,0.008 0.112,0.019 0.169,0.032c0.089,0.021 0.183,0.045 0.279,0.076l0.719,5.574Z" style="fill:#fab29a;fill-rule:nonzero;"/><path d="M53.211,34.069l0,0.009c-0.001,0.129 -0.041,1.473 -1.13,1.656c-1.039,0.177 -1.703,-0.117 -2.018,-0.979l-0.719,-5.574c0,0 0.615,-1.313 2.127,-1.13c0.276,0.034 0.581,0.117 0.918,0.269l0.247,1.728l0.169,1.177l0.406,2.844Z" style="fill:#fab29a;fill-rule:nonzero;"/><path d="M56.851,41.971l3.423,-7.978l-0.286,-0.731l-0.05,-0.129l0.191,-0.015l0.015,0.537l0.131,0.338l-0.113,0.267l0.024,0.84l-0.371,-0.031l-2.963,6.902c0,0 0,0 -0.001,0Z" style="fill:#e5c4bc;fill-rule:nonzero;"/><path d="M59.728,32.593l-0.448,-1.149c0.66,0.13 0.646,0.798 0.646,0.798c0,0 -0.069,0.134 -0.198,0.351Z" style="fill:#e18971;fill-rule:nonzero;"/><path d="M52.972,30.053l-0.336,-0.005l-0.247,-1.728c0.341,0.625 0.577,1.707 0.583,1.733Z" style="fill:#e18971;fill-rule:nonzero;"/><path d="M49.675,35.412l-0.779,-6.339c0.055,0.008 0.112,0.019 0.169,0.032c0.089,0.021 0.183,0.045 0.279,0.076l0.719,5.574l0,0.004c0,0.045 -0.012,0.407 -0.388,0.653Z" style="fill:#e18971;fill-rule:nonzero;"/></g></g><path d="M67.632,16.068l20.997,0l-0.039,3.663l-16.956,0.103l0.031,10.47l14.967,0.064l-0.064,3.559l-14.824,-0.008l-0.058,14.629l-4.029,-0.013l-0.025,-32.467Z" style="fill:#050505;"/><g><path d="M78.033,38.37l1.32,-0.065l1.961,8.748l0.315,0.012l1.789,-8.691l1.033,-0.028l1.923,8.668l0.321,0l1.971,-8.657l1.213,0.043l-2.355,9.772l-1.853,0.065l-1.669,-7.224l-1.607,7.148l-1.873,0.051l-2.489,-9.842Z" style="fill:#ff8400;"/><path d="M92.287,42.428l1.42,-1.297l3.061,-0.111l1.389,1.402l-0.015,2.56l-4.698,0.04l-0.086,1.366l0.79,0.675l3.835,0.077l0.075,1.014l-4.433,-0.099l-1.367,-1.429l0.029,-4.198Zm1.838,-0.451l2.103,-0.015l0.77,0.741l-0.053,1.337l-3.531,0.019l-0.013,-1.276l0.724,-0.806Z" style="fill:#ff8400;"/><path d="M100.63,38.288l1.097,0.017l0.041,3.818l1.018,-0.984l2.595,0.025l1.439,1.276l-0.015,4.346l-1.404,1.446l-2.582,-0.08l-1.011,-0.974l-0.068,1.02l-1.106,-0.05l-0.004,-9.86Zm1.169,5.208l1.327,-1.363l1.733,-0.025l0.775,0.723l0.043,3.705l-0.785,0.616l-1.739,0.028l-1.325,-1.358l-0.029,-2.326Z" style="fill:#ff8400;"/><path d="M109.101,42.419l1.23,-1.098l4.009,-0.025l-0.051,0.921l-3.374,0.076l-0.577,0.527l0,0.713l0.544,0.654l2.867,0.076l1.204,1.233l0.05,1.611l-1.17,1.15l-4.342,0.024l0.013,-0.878l3.667,-0.108l0.584,-0.579l0.06,-0.826l-0.597,-0.694l-2.859,-0.013l-1.262,-1.2l0.004,-1.564Z" style="fill:#ff8400;"/><path d="M117.42,42.654l1.354,-1.418l3.344,0.055l1.405,1.316l0.021,4.233l-1.355,1.413l-3.374,0.026l-1.447,-1.409l0.052,-4.216Zm1.833,-0.432l2.319,-0.038l0.822,0.797l-0.015,3.693l-0.756,0.629l-2.275,0.138l-0.79,-0.869l-0.022,-3.615l0.717,-0.735Z" style="fill:#ff8400;"/><path d="M125.958,38.267l1.077,-0.051l0.049,9.848l-1.056,0.075l-0.07,-9.872Z" style="fill:#ff8400;"/><path d="M129.66,41.344l1.053,-0.064l0.054,5.342l0.742,0.77l1.8,0.014l1.326,-1.344l0.069,-4.707l1.137,0.003l-0.013,6.925l-1.107,0.062l-0.03,-0.939l-1.098,0.894l-2.551,0.069l-1.353,-1.437l-0.029,-5.588Z" style="fill:#ff8400;"/><path d="M138.204,41.357l0.737,0l0.398,-1.888l0.623,0.07l0.089,1.711l1.438,0.13l0.062,0.844l-1.433,0.06l-0.047,4.362l0.67,0.757l1.092,0.039l0.026,0.864l-1.799,0.101l-1.044,-1.172l-0.164,-4.923l-0.671,-0.096l0.023,-0.859Z" style="fill:#ff8400;"/><g><path d="M144.246,39.035l1.102,0.025l0.025,1.491l-1.08,0.013l-0.047,-1.529Z" style="fill:#ff8400;"/><path d="M144.265,41.471l1.104,-0.062l0.044,6.982l-1.094,-0.067l-0.054,-6.853Z" style="fill:#ff8400;"/></g><path d="M147.903,42.835l1.425,-1.406l3.321,0.021l1.433,1.455l-0.083,4.106l-1.351,1.399l-3.382,-0.005l-1.369,-1.394l0.006,-4.176Zm1.998,-0.436l2.209,-0.09l0.722,0.808l-0.026,3.656l-0.692,0.758l-2.285,-0.06l-0.73,-0.678l0.017,-3.645l0.785,-0.749Z" style="fill:#ff8400;"/><path d="M156.433,41.398l1.058,-0.025l0.028,1.218l1.209,-1.206l2.609,-0.021l1.339,1.435l0.02,5.565l-1.146,-0.03l-0.049,-5.264l-0.609,-0.776l-1.769,0.055l-1.583,1.583l-0.022,4.438l-1.113,-0.022l0.028,-6.95Z" style="fill:#ff8400;"/><path d="M165.09,42.691l1.234,-1.214l3.846,-0.006l0.078,1.005l-3.41,0.029l-0.591,0.525l-0.038,0.772l0.678,0.682l2.805,-0.026l1.159,1.123l0.042,1.695l-1.19,1.225l-4.27,0.059l0,-0.996l3.667,-0.094l0.577,-0.5l0.093,-0.969l-0.681,-0.614l-2.757,-0.045l-1.257,-1.213l0.015,-1.438Z" style="fill:#ff8400;"/></g><path d="M19.535,15.884l3.554,-0.11l0.074,16.65l14.825,-16.56l4.477,0.029l-11.699,13.29l11.963,17.947l-4.535,0.001l-9.994,-14.802l-5.048,5.59l-0.075,9.151l-3.756,0.02l0.214,-31.206Z" style="fill:#ff8400;"/></svg>